<svg version="1.1" id="Layer_1" xmlns="http://www.w3.org/2000/svg" xmlns:xlink="http://www.w3.org/1999/xlink" x="0px" y="0px"
	 width="100%" viewBox="0 0 101 110" enable-background="new 0 0 101 110" xml:space="preserve">
<path fill="#FEFEFE" opacity="1.000000" stroke="none" 
	d="
M0.999999,85.000000 
	C1.000000,65.979103 1.000000,46.958210 1.279827,27.754263 
	C4.178940,25.367882 6.564073,22.775154 9.460832,21.033258 
	C18.642300,15.512207 28.051466,10.370893 37.276505,4.920126 
	C38.768772,4.038396 39.771168,2.327579 41.000000,1.000000 
	C47.354397,1.000000 53.708797,1.000000 60.242043,1.304073 
	C60.611389,1.877882 60.744820,2.231655 61.000553,2.405311 
	C74.449165,11.537452 90.682205,16.466644 101.647163,29.348431 
	C101.764778,29.232286 101.882393,29.116144 102.000000,29.000000 
	C102.000000,46.687561 102.000000,64.375122 101.709587,82.244553 
	C98.434547,85.323318 95.828392,88.813820 92.393181,91.003983 
	C82.715981,97.173775 72.685112,102.787590 62.838680,108.695602 
	C62.049145,109.169334 61.604767,110.218330 61.000000,111.000000 
	C54.645603,111.000000 48.291203,111.000000 41.757072,110.698715 
	C41.131073,109.946922 40.756863,109.372955 40.227856,109.064194 
	C30.143026,103.177971 19.996033,97.396690 9.966578,91.418091 
	C6.820394,89.542648 3.980230,87.153839 0.999999,85.000000 
M43.555485,98.034492 
	C47.806774,101.148674 52.019764,102.085320 56.964867,99.085190 
	C65.606361,93.842506 74.568748,89.130379 83.240395,83.935089 
	C87.862091,81.166176 92.172707,77.978004 92.090645,71.568542 
	C91.956306,61.075989 92.148041,50.579193 92.006050,40.086842 
	C91.952629,36.139164 90.606369,32.592834 86.908150,30.439199 
	C76.913376,24.618809 66.835022,18.936047 56.955990,12.925562 
	C52.648354,10.304761 48.784973,10.659105 44.699558,13.037678 
	C36.092968,18.048532 27.478300,23.045975 18.835331,27.993692 
	C13.538940,31.025640 10.332298,34.685272 10.816355,41.633778 
	C11.532343,51.911598 11.264078,62.286091 10.878660,72.599388 
	C10.712850,77.036263 12.375898,79.917641 15.833135,81.944061 
	C24.834921,87.220360 33.936085,92.327118 43.555485,98.034492 
z"/>
<path fill="#000000" opacity="1.000000" stroke="none" 
	d="
M102.000000,28.531342 
	C101.882393,29.116144 101.764778,29.232286 101.647163,29.348431 
	C90.682205,16.466644 74.449165,11.537452 61.000553,2.405311 
	C60.744820,2.231655 60.611389,1.877882 60.710449,1.304073 
	C74.579414,1.000000 88.158836,1.000000 102.000000,1.000000 
	C102.000000,10.019210 102.000000,19.040947 102.000000,28.531342 
z"/>
<path fill="#000000" opacity="1.000000" stroke="none" 
	d="
M61.468658,111.000000 
	C61.604767,110.218330 62.049145,109.169334 62.838680,108.695602 
	C72.685112,102.787590 82.715981,97.173775 92.393181,91.003983 
	C95.828392,88.813820 98.434547,85.323318 101.709587,82.713211 
	C102.000000,92.273750 102.000000,101.547493 102.000000,111.000000 
	C88.646301,111.000000 75.291809,111.000000 61.468658,111.000000 
z"/>
<path fill="#000000" opacity="1.000000" stroke="none" 
	d="
M40.531342,1.000000 
	C39.771168,2.327579 38.768772,4.038396 37.276505,4.920126 
	C28.051466,10.370893 18.642300,15.512207 9.460832,21.033258 
	C6.564073,22.775154 4.178940,25.367882 1.279827,27.285606 
	C1.000000,18.391199 1.000000,9.782396 1.000000,1.000000 
	C14.020465,1.000000 27.041574,1.000000 40.531342,1.000000 
z"/>
<path fill="#000000" opacity="1.000000" stroke="none" 
	d="
M0.999999,85.468666 
	C3.980230,87.153839 6.820394,89.542648 9.966578,91.418091 
	C19.996033,97.396690 30.143026,103.177971 40.227856,109.064194 
	C40.756863,109.372955 41.131073,109.946922 41.288673,110.698715 
	C27.755692,111.000000 14.511383,111.000000 1.000000,111.000000 
	C1.000000,102.647667 1.000000,94.292503 0.999999,85.468666 
z"/>
<path fill="#000000" opacity="1.000000" stroke="none" 
	d="
M43.276543,97.768005 
	C33.936085,92.327118 24.834921,87.220360 15.833135,81.944061 
	C12.375898,79.917641 10.712850,77.036263 10.878660,72.599388 
	C11.264078,62.286091 11.532343,51.911598 10.816355,41.633778 
	C10.332298,34.685272 13.538940,31.025640 18.835331,27.993692 
	C27.478300,23.045975 36.092968,18.048532 44.699558,13.037678 
	C48.784973,10.659105 52.648354,10.304761 56.955990,12.925562 
	C66.835022,18.936047 76.913376,24.618809 86.908150,30.439199 
	C90.606369,32.592834 91.952629,36.139164 92.006050,40.086842 
	C92.148041,50.579193 91.956306,61.075989 92.090645,71.568542 
	C92.172707,77.978004 87.862091,81.166176 83.240395,83.935089 
	C74.568748,89.130379 65.606361,93.842506 56.964867,99.085190 
	C52.019764,102.085320 47.806774,101.148674 43.276543,97.768005 
M23.317898,72.846893 
	C26.842701,75.856651 30.304651,75.745613 33.800209,72.741524 
	C38.002945,69.129684 42.267956,65.590408 46.494736,62.006424 
	C51.141506,58.066322 51.192070,54.055775 46.593399,50.105289 
	C42.264091,46.386208 37.942711,42.653378 33.502193,39.069901 
	C30.669483,36.783913 27.445879,35.587421 24.258490,38.341057 
	C21.866215,40.407776 22.447966,45.226292 25.390354,47.869209 
	C28.491343,50.654587 31.804504,53.203747 35.014217,55.847263 
	C32.590866,58.152981 30.594910,61.010132 27.854294,62.437992 
	C23.605276,64.651726 22.397909,67.729942 23.317898,72.846893 
M70.285736,63.999386 
	C65.287819,63.999397 60.288548,64.070961 55.292431,63.976082 
	C51.504372,63.904148 49.220692,65.745575 49.089539,69.370865 
	C48.954796,73.095596 51.261898,75.001266 55.027290,75.000778 
	C61.024788,75.000000 67.028824,75.159737 73.016228,74.913933 
	C75.102394,74.828293 77.147507,73.742348 78.483185,73.335205 
	C78.483185,70.337654 78.483185,68.384415 78.483185,65.364700 
	C76.417786,64.976486 73.818550,64.487938 70.285736,63.999386 
z"/>
<path fill="#FFFFFF" opacity="1.000000" stroke="none" 
	d="
M23.170603,72.453125 
	C22.397909,67.729942 23.605276,64.651726 27.854294,62.437992 
	C30.594910,61.010132 32.590866,58.152981 35.014217,55.847263 
	C31.804504,53.203747 28.491343,50.654587 25.390354,47.869209 
	C22.447966,45.226292 21.866215,40.407776 24.258490,38.341057 
	C27.445879,35.587421 30.669483,36.783913 33.502193,39.069901 
	C37.942711,42.653378 42.264091,46.386208 46.593399,50.105289 
	C51.192070,54.055775 51.141506,58.066322 46.494736,62.006424 
	C42.267956,65.590408 38.002945,69.129684 33.800209,72.741524 
	C30.304651,75.745613 26.842701,75.856651 23.170603,72.453125 
z"/>
<path fill="#FFFFFF" opacity="1.000000" stroke="none" 
	d="
M70.752525,63.999386 
	C73.818550,64.487938 76.417786,64.976486 78.483185,65.364700 
	C78.483185,68.384415 78.483185,70.337654 78.483185,73.335205 
	C77.147507,73.742348 75.102394,74.828293 73.016228,74.913933 
	C67.028824,75.159737 61.024788,75.000000 55.027290,75.000778 
	C51.261898,75.001266 48.954796,73.095596 49.089539,69.370865 
	C49.220692,65.745575 51.504372,63.904148 55.292431,63.976082 
	C60.288548,64.070961 65.287819,63.999397 70.752525,63.999386 
z"/>
</svg>